<svg xmlns="http://www.w3.org/2000/svg" viewBox="37.052268981933594 153.73289489746094 298.7224807739258 222.8013153076172"><g id="cat-head" data-part="head" data-pivot="187.653 345.752">
    <path fill="#151416" d="M219.755 170.593Q238.917 177.827 260.826 193.711Q285.262 211.427 301.928 232.26Q336.126 274.349 321.282 310.399Q311.363 334.645 283.807 350.126Q258.824 364.161 228.168 366.519Q227.976 366.534 227.783 366.534H147.523Q147.337 366.534 147.152 366.52Q115.943 364.209 90.936 351.284Q63.876 337.297 52.743 315.032Q52.716 314.978 52.691 314.924Q43.623 295.654 49.138 273.591Q54.144 253.567 70.556 233.638Q88.768 212.011 110.721 194.562Q133.89 176.145 151.293 170.558Q164.158 163.733 184.966 163.733Q205.856 163.733 219.755 170.593Z" />
    <path fill="#c398f1" d="M153.256 175.199C169.021 166.599 200.552 166.599 217.751 175.199C240.682 183.798 275.08 206.73 298.011 235.394C316.643 258.326 326.676 284.124 316.643 308.489C303.744 340.02 265.047 358.651 227.783 361.518H147.523C108.826 358.651 71.562 341.453 57.23 312.788C45.764 288.423 54.363 261.192 74.428 236.827C97.36 209.596 130.324 182.365 153.256 175.199Z" data-color-role="primary" />
    <path fill="#151416" d="M115.992 252.593Q161.855 238.261 184.787 209.596Q209.151 238.261 242.116 249.726C275.08 268.358 275.08 301.322 249.282 322.821C220.617 348.619 156.122 348.619 124.591 327.121C95.927 307.055 94.493 271.225 115.992 252.593Z" />
    <path fill="#151416" d="M160.422 252.593C167.942 252.593 174.037 258.689 174.037 266.208V302.039C174.037 309.559 167.942 315.655 160.422 315.655C152.902 315.655 146.806 309.559 146.806 302.039V266.208C146.806 258.689 152.902 252.593 160.422 252.593Z" />
    <path fill="#151416" d="M214.884 252.593C222.404 252.593 228.5 258.689 228.5 266.208V302.039C228.5 309.559 222.404 315.655 214.884 315.655C207.365 315.655 201.269 309.559 201.269 302.039V266.208C201.269 258.689 207.365 252.593 214.884 252.593Z" />
  </g>
  </svg>
